<?xml version="1.0" encoding="utf-8" ?><svg xmlns="http://www.w3.org/2000/svg" xmlns:xlink="http://www.w3.org/1999/xlink" width="1024" height="1024" viewBox="0 0 1024 1024"><path transform="scale(2 2)" d="M281.875 85.1663C282.547 76.3011 286.694 70.7779 295.488 68.8049C310.314 67.3497 319.754 83.7602 309.489 95.1207C302.658 102.681 292.682 101.333 285.889 94.8667C283.108 96.7213 280.379 98.5148 277.554 100.301C283.003 111.299 281.595 118.019 278.52 129.3C352.783 147.131 382.813 244.391 381.707 311.609C380.376 392.477 335.541 444.838 252.731 443.586C191.814 441.778 150.068 412.217 135.324 351.596C117.017 276.325 147.873 149.849 233.928 129.3C232.689 125.169 231.677 121.79 231.342 117.435C229.575 94.4327 253.104 75.8203 271.056 91.8647C273.833 90.0237 278.943 86.4876 281.875 85.1663ZM297.085 79.3444C295.243 79.5953 293.679 80.8194 292.992 82.5474C292.306 84.2754 292.603 86.2393 293.771 87.6861C294.939 89.133 296.796 89.8384 298.63 89.532C301.407 89.0681 303.297 86.4611 302.875 83.6775C302.453 80.8939 299.875 78.9644 297.085 79.3444ZM255.218 96.5677C242.23 98.5672 238.85 116.235 245.093 126.403C249.293 126.853 253.469 126.259 257.85 126.403C261.042 126.534 263.958 126.737 267.144 126.403C273.781 115.66 269.768 96.2088 255.218 96.5677ZM254.525 137.493C234.106 137.657 201.479 151.186 189.841 168.335C192.588 170.028 195.361 172.07 197.938 173.707C223.241 189.78 234.398 162.287 257.85 166.273C285.061 166.527 291.037 193.072 322.863 168.335C304.499 151.143 280.973 135.156 254.525 137.493ZM182.536 176.227C153.789 205.145 139.945 269.023 140.384 307.595C140.752 339.923 150.013 379.683 173.686 403.134C212.181 441.268 288.331 442.182 330.983 409.796C390.339 362.876 376.979 243.666 338.096 186.845C335.637 183.253 332.548 179.992 330.208 176.227C317.61 185.686 309.472 190.49 293.171 188.898C270.103 187.154 265.581 164.986 233.291 184.356C220.255 192.175 201.264 190.454 189.398 181.187C188.295 180.326 183.347 176.34 182.536 176.227Z"/><path transform="scale(2 2)" d="M109.132 248.271C103.679 253.971 98.0939 260.482 105.347 267.681C106.397 268.723 107.969 269.863 108.537 271.238C112.236 280.193 96.4459 283.154 91.8364 265.148C87.089 246.603 110.201 237.723 108.364 229.81C106.202 220.495 80.4955 213.304 94.0714 190.817C96.7328 186.408 116.964 159.504 121.86 158.292C133.432 159.315 123.67 170.223 120.362 174.344C126.731 180.192 133.539 185.587 134.185 194.712C135.359 211.281 115.571 215.751 117.323 205.968C117.738 196.768 134.22 201.519 113.402 182.597C109.991 187.074 100.82 197.422 100.703 202.955C101.562 215.864 135.794 220.628 109.132 248.271Z"/><path transform="scale(2 2)" d="M408.839 298.77C405.724 299.362 403.391 298.077 402.235 295.124C399.981 289.365 409.134 286.282 410.662 281.791C413.156 274.177 385.636 262.411 402.905 244.481C408.375 238.803 414.871 235.304 407.212 228.188C400.535 221.983 395.134 214.986 397.784 205.401C399.271 200.021 408.687 189.581 413.778 186.759C416.259 186.503 418.976 187.315 419.956 189.786C422.773 196.892 409.662 201.947 408.134 208.167C406.235 215.9 417.303 220.749 419.838 227.383C429.78 247.208 397.971 250.148 412.578 264.012C418.061 269.217 423.698 275.981 421.085 284.138C419.556 288.912 413.123 296.454 408.839 298.77Z"/><path transform="scale(2 2)" d="M305.181 317.205L217.944 317.215C193.875 317.231 189.967 314.493 190.461 289.456L191.21 241.854C191.275 229.053 189.515 214.642 206.55 212.296C211.268 211.999 219.191 212.282 224.246 212.285L289.779 212.287C316.935 212.272 320.797 212.364 320.781 241.349L320.784 290.161C320.809 302.712 321.49 315.199 305.181 317.205ZM208.935 222.825C199.291 223.719 201.865 234.654 201.799 242.71L201.225 289.333C200.99 308.302 201.181 306.666 218.634 306.643L302.703 306.63C312.621 306.091 310.205 294.695 310.193 286.873L310.172 228.981C310.095 220.679 298.396 222.805 292.66 222.81L208.935 222.825Z"/><path transform="scale(2 2)" d="M251.099 276.541C250.537 269.648 252.646 262.015 252.795 255.257C253.025 244.777 257.439 246.037 266.019 243.546C270.032 242.381 274.403 241.134 278.52 240.316C284.32 239.447 291.483 247.61 273.896 252.654L263.508 255.699C262.741 261.012 261.971 280.576 259.861 283.939C258.368 286.32 238.651 291.147 235.061 291.938C230.812 292.695 227.03 287.963 229.49 284.161C231.843 280.523 246.94 277.475 251.099 276.541Z"/><path transform="scale(2 2)" d="M201.393 381.017C189.595 382.931 178.487 374.898 176.609 363.095C174.731 351.292 182.798 340.208 194.607 338.366C206.365 336.532 217.39 344.557 219.26 356.309C221.13 368.061 213.139 379.111 201.393 381.017ZM197.161 348.852C191.256 349.344 186.84 354.484 187.242 360.395C187.643 366.306 192.715 370.801 198.631 370.49C202.54 370.285 206.035 367.989 207.776 364.483C209.517 360.977 209.233 356.805 207.034 353.567C204.835 350.329 201.061 348.527 197.161 348.852Z"/><path transform="scale(2 2)" d="M315.617 381.462C303.884 382.214 293.765 373.308 293.021 361.575C292.277 349.842 301.19 339.729 312.923 338.993C324.646 338.258 334.746 347.16 335.489 358.882C336.233 370.603 327.338 380.71 315.617 381.462ZM312.145 349.768C306.309 350.79 302.409 356.352 303.438 362.186C304.466 368.021 310.033 371.914 315.867 370.878C321.689 369.843 325.574 364.288 324.547 358.464C323.52 352.64 317.97 348.749 312.145 349.768Z"/><path transform="scale(2 2)" d="M259.353 409.322C247.565 411.234 236.447 403.266 234.469 391.489C232.491 379.713 240.395 368.549 252.161 366.504C264.021 364.443 275.293 372.425 277.287 384.297C279.282 396.168 271.236 407.395 259.353 409.322ZM253.864 377.038C247.893 378.345 244.117 384.251 245.438 390.219C246.76 396.187 252.675 399.948 258.64 398.613C264.584 397.282 268.33 391.391 267.013 385.443C265.697 379.495 259.814 375.735 253.864 377.038Z"/></svg>