<?xml version="1.0" encoding="utf-8" ?><svg xmlns="http://www.w3.org/2000/svg" xmlns:xlink="http://www.w3.org/1999/xlink" width="1024" height="1024" viewBox="0 0 1024 1024"><path transform="scale(2 2)" d="M168.505 151.522C168.595 129.004 187.492 115.808 208.654 124.497C229.632 133.11 221.107 166.017 246.998 162.048C282.018 156.68 265.985 106.37 310.315 99.8363C330.071 97.0706 349.349 113.192 349.911 133.166C350.021 137.073 349.632 140.939 349.761 144.91C362.079 149.43 366.389 157.343 366.618 169.909C367.361 170.091 368.143 170.294 368.862 170.545C427.846 191.12 450.568 260.89 432.838 317.124C416.616 368.573 366.176 402.356 312.921 384.749C295.573 379.013 274.042 363.039 265.895 346.603C253.226 376.154 231.117 397.671 200.812 407.837C172.382 416.452 140.938 410.173 117.541 391.652C57.8824 344.313 59.5868 243.122 116.657 194.603C124.292 188.112 141.361 178.298 151.19 177.32C151.101 165.027 156.409 155.484 168.505 151.522ZM311.674 109.833C290.914 112.987 289.16 126.07 282.377 141.527C276.277 155.426 265.739 168.875 249.953 171.641C236.599 174.097 222.426 167.133 216.997 154.603C213.378 146.251 214.663 136.174 203.724 133.383C188.19 129.42 179.091 135.664 178.149 151.522C191.705 151.445 199.182 165.163 199.51 177.32C202.937 178.279 205.547 179.181 208.813 180.6C229.471 189.902 244.606 203.945 256.647 223.027C268 203.008 294.07 171.641 319.304 169.909C318.913 157.79 326.449 144.658 339.751 144.91C339.687 137.456 340.767 131.061 337.453 124.016C332.782 114.089 322.725 108.438 311.674 109.833ZM340.754 154.291C333.971 155.891 330.528 159.598 329.108 166.344C334.785 166.06 340.162 165.565 345.866 165.753C349.983 166.226 352.593 166.735 356.706 166.344C355.289 157.442 349.427 153.66 340.754 154.291ZM173.38 160.782C165.308 162.82 162.125 166.663 160.798 174.832C166.924 174.057 171.077 173.515 177.312 173.735C181.72 173.762 185.263 174.246 189.639 174.832C188.432 166.415 182.565 159.421 173.38 160.782ZM340.754 175.989C303.047 176.358 277.885 202.292 262.429 233.768C279.43 269.344 279.797 299.394 270.049 336.226C273.517 341.21 276.681 346.306 280.584 350.984C295.078 368.36 320.673 381.332 343.855 379.485C385.369 378.547 417.537 343.752 426.102 304.992C434.349 267.668 424.592 224.352 395.946 197.892C381.851 184.874 361.3 175.298 341.949 175.939L340.754 175.989ZM171.012 183.274C77.5994 191.778 54.6922 326.499 121.718 382.344C138.851 396.619 157.707 402.073 179.459 401.748C273.449 393.485 294.383 260.263 227.109 203.337C210.996 189.703 192.09 182.848 171.012 183.274Z"/><path transform="scale(2 2)" d="M141.248 220.598C138.19 221.446 135.341 219.93 134.579 216.73C132.701 208.847 157.21 200.361 163.091 199.587C167.102 198.925 171.131 201.068 169.869 205.837C168.728 210.15 161.254 209.719 157.543 210.853C150.49 212.919 147.066 217.261 141.248 220.598Z"/><path transform="scale(2 2)" d="M322.723 252.849C323.408 250.666 325.272 247.516 326.379 245.432L333.019 233.101C335.127 229.223 338.297 220.731 342.277 218.798C344.126 218.677 346.176 218.721 347.241 220.492C353.539 230.965 359.607 242.114 365.446 252.849C371.409 254.416 399.314 258.441 401.897 261.041C406.165 265.338 397.526 271.832 394.885 274.682C389.238 280.78 383.553 287.089 377.634 292.912C379.822 304.233 380.466 316.479 382.21 327.932C383.794 338.334 369.822 330.361 366.175 328.725L347.401 320.29C346.746 319.944 344.663 319.37 343.855 319.126C337.023 320.737 314.668 332.648 311.456 332.662C305.005 332.69 307.786 322.267 308.129 318.622C308.928 310.119 310.082 301.442 310.315 292.912C305.993 289.007 301.76 283.81 297.537 279.626C294.55 276.608 278.76 264.172 288.303 260.616C295.78 257.83 314.798 254.182 322.723 252.849ZM343.855 233.768L343.606 234.137C338.348 242.042 334.677 253.019 328.836 260.582C327.877 261.824 317.617 263.792 315.241 264.334L299.79 268.021C302.976 271.002 318.726 286.673 320.418 289.878L320.656 290.324C319.662 299.684 319.118 309.959 317.759 319.126C322.416 317.368 342.167 307.309 345.866 308.563C354.372 312.406 363.068 316.532 371.551 320.29C370.958 310.577 368.524 300.42 367.801 290.71C367.551 287.346 384.631 271.371 387.828 267.554C381.43 266.024 360.265 263.753 357.469 258.789C353.777 252.235 350.218 245.549 346.539 238.985C346.31 238.575 343.756 233.634 343.855 233.768Z"/><path transform="scale(2 2)" d="M198.065 361.445C187.388 361.129 174.634 361.383 163.894 361.457C141.864 361.61 138.086 361.124 127.303 341.358L120.492 329.054C107.705 306.019 101.561 300.815 114.202 276.902L121.449 263.116C129.039 248.607 133.318 236.405 152.236 233.768C153.764 233.65 156.716 233.751 158.332 233.751L171.016 233.752C188.319 233.755 205.648 230.452 217.822 245.688C221.933 250.834 240.108 283.596 241.851 289.496C246.596 305.564 234.889 319.631 227.258 332.69C218.085 348.39 216.566 356.12 198.065 361.445ZM153.126 243.497C142.147 245.413 137.413 252.837 132.938 262.17C117.482 294.411 109.26 288.243 127.877 322.282L135.843 336.591C141.49 346.786 142.852 351.456 155.655 351.627C169.739 351.815 184.016 351.366 198.065 351.639C209.516 346.828 209.743 343.911 215.755 333.408L224.883 317.461C238.518 293.661 234.448 294.701 222.302 272.423L215.181 259.462C203.875 239.068 194.027 243.483 173.28 243.482L160.244 243.48C158.151 243.476 155.144 243.352 153.126 243.497Z"/><path transform="scale(2 2)" d="M158.677 278.039C158.649 267.705 160.909 259.703 172.279 257.566C185.956 255.98 190.543 266.758 190.623 278.039C213.19 266.617 223.386 296.856 206.232 305.321C197.651 309.556 200.359 306.27 204.311 314.258C210.99 327.756 191.423 347.101 175.98 328.42C173.95 325.95 171.234 332.562 167.332 334.423C154.257 340.744 138.344 328.189 145.946 314.272C148.669 309.285 152.017 308.233 144.816 306.022C126.472 300.39 132.579 266.872 158.677 278.039ZM173.38 267.554C161.789 270.685 177.149 293.7 151.103 285.631C144.288 283.519 140.715 293.566 147.132 296.399C171.569 307.19 152.338 314.035 154.145 323.09C154.614 325.443 159.891 327.381 162.029 325.995C167.756 322.105 167.704 317.87 175.98 317.613C184.374 318.289 185.294 330.287 193.356 325.043C200.645 320.461 188.444 314.175 191.177 304.793C194.118 294.696 202.699 300.166 205.405 291.762C203.015 281.92 199.001 285.644 192.146 287.552C187.741 288.777 182.094 284.577 181.207 280.158C180.05 274.392 182.374 266.512 173.38 267.554Z"/></svg>