<?xml version="1.0" encoding="utf-8" ?><svg xmlns="http://www.w3.org/2000/svg" xmlns:xlink="http://www.w3.org/1999/xlink" width="1024" height="1024" viewBox="0 0 1024 1024"><path transform="scale(2 2)" d="M244.669 122.934C241.169 113.538 238.007 113.77 232.705 106.489C221.11 90.5669 233.751 68.3935 253.7 65.8413C277.195 63.5184 292.552 93.1361 275.8 110.296C271.391 114.813 269.606 116.941 267.888 122.934C276.252 130.61 278.072 135.97 277.255 147.077C291.341 148.921 311.272 163.155 321.276 173.181C359.665 211.656 379.345 280.358 361.65 333.084C355.706 350.796 356.397 348.134 356.3 367.891C356.105 407.661 323.94 441.88 284.565 445.707C275.943 446.545 267.077 446.309 258.312 446.296C233.76 446.326 218.046 447.892 195.578 435.087C173.21 422.339 158.07 399.092 155.743 373.398C154.799 364.742 156.619 355.596 155.053 347.022C153.691 339.562 149.737 333.14 147.82 325.546C132.131 263.373 166.736 165.172 234.276 147.077C233.399 136.255 235.877 129.483 244.669 122.934ZM254.595 75.3284C242.415 77.1798 234.473 88.6104 240.497 100.814C242.244 104.353 247.206 107.523 249.308 110.984C251.554 114.009 252.869 120.028 257.402 119.233C260.195 116.655 260.548 113.316 262.599 110.608C267.046 104.734 273.092 101.996 273.312 93.6592C273.58 83.469 264.97 74.4464 254.595 75.3284ZM254.595 130.323C245.73 131.585 243.681 136.595 243.62 144.744C248.466 144.351 252.545 143.9 257.402 144.209C261.216 144.137 264.057 144.176 267.888 144.744C267.762 135.201 265.252 129.998 254.595 130.323ZM254.595 153.496C179.787 155.104 136.795 268.82 159.039 329.315C165.977 348.168 164.775 346.059 164.881 366.659C165.065 402.377 193.115 432.247 228.221 436.267C237.752 437.358 247.783 436.706 257.402 436.695C265.803 436.704 274.779 437.03 282.992 436.282C319.085 432.997 348.04 401.351 346.759 364.829C346.105 346.174 347.125 346.244 352.71 329.772C369.593 279.974 349.933 216.88 314.694 180.002C300.696 165.352 274.84 151.053 254.595 153.496Z"/><path transform="scale(2 2)" d="M290.194 348.241C274.5 349.236 268.379 341.505 256.17 341.255C249.499 340.875 244.158 344.238 238.076 346.279C212.713 354.791 182.591 336.131 182.109 308.671C181.915 297.619 182.035 286.609 182.032 275.58L182.011 260.774C181.991 256.875 181.741 253.321 182.073 249.393C183.834 228.568 201.07 211.075 222.415 210.268C236.803 207.375 247.04 221.99 268.749 214.75C273.792 213.068 278.361 210.777 283.724 210.341C298.352 209.151 315.022 216.842 322.91 229.544C333.364 246.376 330.797 258.047 330.807 276.945L330.829 295.257C330.835 301.455 331.192 307.877 329.734 313.926C325.211 332.691 309.562 346.818 290.194 348.241ZM221.885 219.834C196.722 223.356 189.388 242.527 191.023 264.993C194.059 264.954 199.389 264.346 201.772 266.392C203.383 267.776 203.57 271.651 201.813 273.07C199.339 275.063 194.165 274.463 191.023 274.443L191.023 287.656C195.874 287.632 207.789 286.974 201.484 295.546C199.983 297.587 193.972 297.183 191.023 297.06C191.204 303.637 190.652 309.859 192.736 316.178C197.48 330.557 210.873 339.328 225.847 339.059C236.146 339.005 244.576 331.52 254.964 331.784C269.095 332.142 276.299 339.74 290.194 338.75C298.2 338.362 306.905 333.814 312.053 327.8C321.36 316.932 321.398 310.09 321.447 297.06C318.489 297.078 313.19 297.631 310.861 295.635C309.222 294.231 309.159 290.492 310.814 289.057C313.219 286.92 318.409 287.551 321.447 287.656L321.447 273.238C318.608 273.266 314.722 273.525 312.211 272.76C308.904 271.753 308.99 267.152 311.165 265.177C313.04 263.473 319.272 263.967 321.447 263.989C321.476 260.363 321.594 255.973 321.375 252.422C320.301 234.968 305.154 220.084 287.611 219.687C281.577 219.551 276.539 222.393 270.974 224.05C245.483 231.641 239.418 218.145 221.885 219.834Z"/><path transform="scale(2 2)" d="M290.194 320.993L231.521 321.004C214.361 321.092 213.069 318.92 213.117 301.465L213.112 260.972C213.099 252.337 210.936 240.503 222.415 238.857C224.892 238.691 229.155 238.835 231.793 238.839L275.236 238.846C299.056 238.835 299.686 237.835 299.679 260.112L299.681 299.47C299.708 308.957 301.478 317.432 290.194 320.993ZM227.026 248.312L222.415 248.312C222.138 251.149 222.382 255.243 222.404 258.249L222.406 298.974C222.403 302.533 222.217 308.071 222.415 311.492C227.838 311.859 237.601 311.493 243.372 311.491L286.253 311.492C287.418 311.4 288.382 311.457 289.349 310.858C290.456 309.493 290.526 259.357 290.194 248.312C284.324 248.016 275.515 248.31 269.413 248.312L227.026 248.312Z"/><path transform="scale(2 2)" d="M201.376 394.039C192.726 394.707 185.18 388.215 184.551 379.562C183.921 370.908 190.447 363.392 199.104 362.802C207.705 362.215 215.162 368.691 215.788 377.289C216.413 385.887 209.972 393.374 201.376 394.039ZM199.592 372.184C197.324 372.392 195.35 373.82 194.442 375.908C193.533 377.997 193.835 380.414 195.229 382.215C196.623 384.016 198.888 384.915 201.137 384.559C204.462 384.033 206.77 380.964 206.353 377.624C205.936 374.284 202.944 371.876 199.592 372.184Z"/><path transform="scale(2 2)" d="M305.849 407.054C297.456 408.463 289.507 402.81 288.083 394.42C286.659 386.029 292.298 378.07 300.687 376.631C309.095 375.189 317.078 380.845 318.506 389.257C319.933 397.668 314.263 405.641 305.849 407.054ZM301.809 385.897C299.75 386.4 298.105 387.945 297.472 389.967C296.818 392.059 297.347 394.341 298.854 395.932C300.36 397.523 302.61 398.174 304.734 397.635C307.961 396.815 309.919 393.541 309.114 390.31C308.309 387.079 305.043 385.106 301.809 385.897Z"/><path transform="scale(2 2)" d="M255.875 421.252C247.517 422.472 239.741 416.718 238.465 408.368C237.188 400.019 242.889 392.204 251.229 390.87C259.651 389.524 267.558 395.292 268.847 403.722C270.136 412.153 264.314 420.021 255.875 421.252ZM252.905 400.147C249.962 400.526 247.758 403.032 247.757 406C247.757 407.694 248.485 409.306 249.754 410.426C251.024 411.546 252.714 412.067 254.395 411.856C257.632 411.45 259.925 408.493 259.514 405.256C259.102 402.019 256.142 399.73 252.905 400.147Z"/></svg>