<?xml version="1.0" encoding="utf-8" ?><svg xmlns="http://www.w3.org/2000/svg" xmlns:xlink="http://www.w3.org/1999/xlink" width="1024" height="1024" viewBox="0 0 1024 1024"><path transform="scale(2 2)" d="M233.089 109.688C235.624 98.83 242.848 93.5985 253.45 91.813C265.995 90.4887 275.3 97.9829 278.854 109.688L279.349 109.637C294.993 108.139 299.346 120.471 278.854 120.279C276.677 128.915 269.875 135.696 261.262 137.958L261.262 145.315L286.242 145.305C328.031 145.312 349.389 157.55 369.805 192.422L393.64 233.201C395.717 236.823 398.024 240.403 399.938 244.091C416.458 275.942 410.798 304.986 394.112 334.193L380.863 357.13C375.835 365.854 370.835 376.171 365.313 384.341C345.952 412.989 316.308 420.236 284.312 420.244L259.875 420.237L217.667 420.242C194.249 420.315 171.466 410.732 154.837 394.32C147.401 386.981 143.659 379.421 138.628 370.43L116.014 330.064C101.791 304.863 97.3365 281.007 108.203 252.613C111.06 245.147 115.027 238.776 118.988 231.883L139.994 194.875C142.145 191.037 144.039 187.029 146.48 183.362C165.736 154.437 194.411 145.31 227.055 145.304L250.833 145.315L250.833 137.958C241.93 135.682 235.537 128.996 233.089 120.279C229.9 120.273 224.11 121.006 221.706 118.755C219.586 116.77 219.971 112.613 222.09 110.775C224.377 108.789 230.178 109.574 233.089 109.688ZM253.342 102.281C246.356 103.703 241.836 110.509 243.235 117.5C244.634 124.491 251.425 129.033 258.42 127.658C265.449 126.275 270.018 119.446 268.612 112.421C267.207 105.397 260.362 100.851 253.342 102.281ZM217.808 155.476C170.449 159.52 159.943 180.72 139.62 216.592L127.6 238.002C107.91 272.694 106.988 293.743 126.608 328.147L148.216 366.326C153.648 376.032 157.796 383.727 166.647 391.006C185.075 406.162 200.523 409.844 223.168 409.834L294.263 409.819C318.805 409.526 344.566 397.438 358.085 376.247C363.011 368.524 367.275 360.025 371.867 352.043L385.463 328.104C388.886 322.022 391.889 317.618 394.346 310.891C404.909 281.967 398.306 262.03 384.186 237.43L370.241 213.5C362.534 200.464 355.713 186.091 344.731 175.567C321.987 153.772 299.455 155.466 270.469 155.471L217.808 155.476Z"/><path transform="scale(2 2)" d="M273.499 191.317L251.12 191.337C248.547 191.337 240.187 191.698 238.168 190.961C233.143 189.127 233.376 182.807 238.796 180.707C243.954 180.677 271.838 180.115 274.417 181.22C279.57 183.428 277.993 189.585 273.499 191.317Z"/><path transform="scale(2 2)" d="M329.888 330.268L195.874 330.274C190.999 330.285 185.273 330.592 180.501 330.13C164.783 328.611 167.218 309.585 167.244 298.685L167.23 241.959C167.228 230.108 166.218 215.96 182.922 214.567L315.598 214.568C339.837 214.547 345.087 214.641 345.057 241.415L345.055 299.2C345.058 312.564 347.452 327.403 329.888 330.268ZM310.436 224.921L200.282 224.917C194.976 224.919 189.694 224.848 184.426 225.107C175.279 225.558 177.517 234.023 177.537 240.674L177.549 294.539C177.547 300.799 177.522 307.045 177.613 313.313C177.723 321.019 184.327 319.787 189.949 319.785L202.875 319.767L311.927 319.771C331.98 319.766 334.724 323.951 334.662 303.49L334.662 238.881C334.782 219.808 327.51 224.865 310.436 224.921Z"/><path transform="scale(2 2)" d="M199.864 302.762C190.992 302.996 194.185 285.511 194.184 278.713L194.181 258.184C194.184 252.004 191.928 242.771 198.92 241.779C206.113 240.757 204.57 252.402 204.432 257.09C204.024 271.037 204.961 285.555 204.427 299.439C203.052 301.336 202.014 302.004 199.864 302.762Z"/><path transform="scale(2 2)" d="M313.933 302.762C309.486 302.679 307.543 300.514 307.596 296.171C307.807 279.156 307.132 261.978 307.925 245.014C307.992 243.571 310.144 242.304 311.234 241.779C320.134 240.746 317.802 252.423 317.804 257.978L317.829 291.522C317.834 297.005 318.904 299.468 313.933 302.762Z"/><path transform="scale(2 2)" d="M271.066 267.304C267.052 263.8 250.381 251.55 263.143 248.019C267.302 247.97 284.131 265.391 287.274 268.607C291.674 273.11 287.794 276.185 284.592 279.575C280.857 283.208 267.3 299.599 262.664 297.769C249.901 292.731 271.157 280.599 270.854 277.863L270.063 277.776L242.466 277.783C237.556 277.795 232.647 277.94 227.743 277.669C221.657 277.509 221.334 268.123 227.188 267.55C231.858 267.093 237.113 267.294 241.834 267.293L271.066 267.304Z"/><path transform="scale(2 2)" d="M206.382 395.699C196.208 396.329 187.458 388.576 186.859 378.4C186.261 368.225 194.042 359.498 204.219 358.931C214.351 358.367 223.031 366.106 223.627 376.237C224.223 386.368 216.511 395.071 206.382 395.699ZM203.914 369.371C199.542 370.098 196.569 374.207 197.246 378.587C197.923 382.967 201.999 385.987 206.386 385.359C209.269 384.946 211.708 383.017 212.771 380.306C213.835 377.595 213.36 374.522 211.527 372.259C209.694 369.996 206.786 368.893 203.914 369.371Z"/><path transform="scale(2 2)" d="M258.624 395.913C248.537 397.153 239.343 390.012 238.049 379.932C236.756 369.852 243.848 360.62 253.921 359.272C264.07 357.915 273.387 365.072 274.691 375.229C275.994 385.385 268.787 394.663 258.624 395.913ZM254.613 369.862C250.289 370.747 247.512 374.983 248.426 379.301C249.34 383.619 253.594 386.368 257.906 385.426C262.178 384.492 264.895 380.286 263.99 376.008C263.085 371.73 258.897 368.985 254.613 369.862Z"/><path transform="scale(2 2)" d="M309.134 396.039C298.994 397.4 289.684 390.248 288.384 380.1C287.085 369.952 294.293 360.685 304.448 359.447C314.517 358.22 323.688 365.353 324.976 375.414C326.265 385.475 319.188 394.689 309.134 396.039ZM304.861 370.154C300.638 371.186 298.057 375.454 299.105 379.674C300.152 383.894 304.429 386.459 308.645 385.396C312.839 384.339 315.389 380.088 314.347 375.89C313.305 371.692 309.063 369.127 304.861 370.154Z"/></svg>