<?xml version="1.0" encoding="utf-8" ?><svg xmlns="http://www.w3.org/2000/svg" xmlns:xlink="http://www.w3.org/1999/xlink" width="1024" height="1024" viewBox="0 0 1024 1024"><path transform="scale(2 2)" d="M262.818 161.547C250.944 173.282 252.509 152.626 251.74 149C249.325 137.768 246.874 127.681 249.064 116.063C253.674 91.6159 274.322 73.8192 299.398 73.0309C306.684 71.3814 319.742 75.2244 327.366 75.6275C336 76.1784 351.312 67.8427 349.412 81.635C344.679 116.001 325.265 150.819 286.812 152.504C277.677 152.819 271.669 152.047 262.818 149.736C263.082 152.766 263.114 158.588 262.818 161.547ZM300.787 83.7318C273.455 84.5778 258.471 104.616 258.789 130.85C271.195 112.907 285.575 102.711 307.445 97.8672C313.26 96.5793 318.457 100.368 314.703 106.9C314.059 108.02 295.209 112.734 291.337 114.756C278.922 121.551 273.798 127.822 266.278 139.299C304.229 149.872 334.167 122.687 337.57 86.2473C335.256 86.1346 332.965 86.1346 330.652 86.2353C320.917 86.6591 310.485 82.7018 300.787 83.7318Z"/><path transform="scale(2 2)" d="M379.854 150.491C379.848 144.363 379.055 113.179 380.884 110.037C381.716 108.608 383.059 107.978 384.585 107.532C410.128 107.278 428.963 140.803 418.424 145.392C406.626 149.754 414.558 126.81 390.445 119.086C390.196 122.728 390.432 129.476 390.433 133.412L390.445 163.125C390.589 177.914 382.236 191.546 365.614 186.115C341.868 178.358 352.155 141.125 379.854 150.491ZM370.233 159.624C365.676 160.253 362.476 164.435 363.061 168.998C363.646 173.561 367.797 176.801 372.365 176.26C376.996 175.712 380.29 171.491 379.698 166.866C379.105 162.241 374.853 158.987 370.233 159.624Z"/><path transform="scale(2 2)" d="M119.175 194.805L119.163 172.056C119.16 166.301 116.934 156.034 123.687 155.239C157.095 151.527 167.668 195.596 152.534 191.144C144.461 188.769 154.476 171.302 129.656 165.734C129.435 169.716 129.643 175.757 129.645 179.951L129.656 208.869C129.45 223.931 118.09 234.586 103.874 228.955C80.5435 219.713 93.1508 184.28 119.175 194.805ZM108.809 203.304C104.296 204.323 101.481 208.828 102.543 213.331C103.606 217.834 108.138 220.605 112.63 219.499C117.062 218.409 119.788 213.951 118.74 209.509C117.692 205.067 113.261 202.298 108.809 203.304Z"/><path transform="scale(2 2)" d="M258.178 437.74C153.921 438.499 92.4207 319.734 158.97 237.351C166.876 227.564 175.011 219.208 185.515 212.111C198.749 203.17 195.571 200.872 204.885 192.385C217.567 179.218 235.798 171.881 253.958 171.535C275.86 169.352 301.586 182.35 314.146 200.012C315.058 201.294 318.366 206.156 319.479 206.836C365.18 234.926 387.951 286.602 377.585 339.239C366.496 395.543 315.4 437.261 258.178 437.74ZM252.174 182.284C233.461 184.066 221.324 189.955 208.751 204.501C206.491 207.117 204.249 211.12 201.941 213.45C198.334 217.093 186.58 224.855 181.712 228.442C181.698 234.629 182.183 240.372 182.528 246.55L185.97 304.77C186.251 309.59 186.546 316.937 187.302 321.544C211.094 329.181 214.744 357.434 193.819 367.885C162.507 383.525 140.637 333.642 176.322 322.25C175.886 295.43 173.268 265.575 171.389 238.766C167.99 242.394 165.509 246.318 162.672 250.349C130.379 296.232 137.16 359.549 179.337 397.472C203.241 418.966 229.729 427.339 261.062 426.792C349.36 421.61 397.801 327.549 351.59 252.724C349.079 248.659 344.374 241.62 340.763 238.766C339.43 254.843 338.988 271.89 338.119 288.076L336.981 306.967C336.657 311.845 336.227 316.65 336.272 321.544C370.283 332.889 352.976 380.892 321.074 369.165C297.269 360.414 300.846 324.955 325.59 321.544C325.486 314.448 326.107 308.035 326.465 301.003L329.402 249.496C329.728 242.775 330.3 235.087 330.261 228.442C325.196 223.782 315.478 218.301 311.784 214.348C308.722 211.07 306.711 207.193 303.579 203.732C289.125 187.757 272.953 182.014 252.174 182.284ZM327.633 331.834C319.959 333.055 314.709 340.241 315.878 347.924C317.047 355.606 324.198 360.905 331.888 359.788C339.652 358.66 345.012 351.426 343.832 343.67C342.652 335.913 335.382 330.602 327.633 331.834ZM180.318 332.331C172.711 333.574 167.561 340.759 168.828 348.362C170.095 355.964 177.297 361.092 184.895 359.801C192.46 358.516 197.56 351.353 196.298 343.784C195.037 336.215 187.89 331.093 180.318 332.331Z"/><path transform="scale(2 2)" d="M235.068 276.477C209.205 289.919 187.209 270.979 201.674 264.755C204.962 264.788 208.215 268.743 211.675 269.924C224.137 274.18 230.601 263.904 234.27 265.342C240.429 267.755 239.777 273.336 235.068 276.477Z"/><path transform="scale(2 2)" d="M311.636 276.477C290.709 291.608 263.099 271.646 277.767 265.553C282.05 265.012 284.352 268.644 288.134 269.924C301.107 274.312 303.701 265.969 310.251 265.634C316.409 265.319 316.922 272.067 311.636 276.477Z"/><path transform="scale(2 2)" d="M255.882 333.083C260.701 328.376 272.653 314.929 277.767 312.297C283.305 311.563 287.775 316.792 283.645 320.878C275.716 328.723 267.797 336.688 259.62 344.265C254.132 348.077 249.594 341.671 246.03 338.166L233.843 326.231C219.917 312.755 233.236 311.307 235.513 313.362C242.182 319.383 249.718 326.618 255.882 333.083Z"/></svg>