<?xml version="1.0" encoding="utf-8" ?><svg xmlns="http://www.w3.org/2000/svg" xmlns:xlink="http://www.w3.org/1999/xlink" width="1024" height="1024" viewBox="0 0 1024 1024"><path transform="scale(2 2)" d="M232.666 108.237L243.87 97.5084C246.985 94.5365 251.666 89.5808 255.378 87.762C260.018 87.5277 276.5 104.663 280.247 108.237C285.257 102.734 291.096 97.6536 296.455 92.4579C299.657 89.3529 302.188 86.6311 306.329 90.1286C309.985 93.2178 332.924 110.987 332.528 115.126C331.445 126.429 320.289 115.789 317.099 113.068L302.632 100.67C297.281 106.243 291.61 111.499 286.204 116.971C280.319 122.928 278.325 121.009 272.93 115.908C267.563 110.834 262.176 105.662 256.741 100.67C254.348 99.3954 238.258 120.268 233.293 120.796C230.066 121.139 212.309 103.584 208.508 100.67C202.143 106.701 195.163 112.766 188.572 118.592C182.945 123.059 176.958 115.387 182.2 110.651C190.091 103.521 197.757 96.0465 205.693 88.9854C211.462 85.1352 228.025 103.749 232.666 108.237Z"/><path transform="scale(2 2)" d="M284.688 424.221L248.855 424.234C215.999 424.227 198.104 422.782 169.991 405.055C139.25 386.003 118.385 349.176 118.527 312.895C118.734 260.168 111.831 224.088 152.385 183.491L166.904 169.031C185.846 150.117 197.662 134.371 227.017 132.516L266.137 132.508C295.969 132.506 307.471 132.023 330.447 154.441L356.179 179.222C383.515 205.189 392.989 228.942 392.998 267.437L392.998 289.091C393.027 325.482 394.11 350.361 368.545 381.13C346.501 407.661 318.633 420.972 284.688 424.221ZM229.186 142.893C202.971 144.198 193.768 157.759 176.386 174.45C151.222 198.616 131.458 216.849 128.998 255.131C127.82 273.47 127.984 298.367 128.738 316.814C130.783 366.816 173.24 407.939 222.069 413.429C230.826 414.413 240.837 414.073 249.686 414.075L282.688 414.063C333.754 408.963 378.016 374.896 382.572 321.085C382.924 316.936 382.784 312.442 382.784 308.244L382.773 288.65C382.747 251.348 384.341 226.288 357.814 195.029C352.974 189.326 343.706 181.589 337.994 176.097L324.764 163.355C307.326 146.364 299.736 142.882 273.965 142.883L238.141 142.88C235.578 142.875 231.578 142.74 229.186 142.893Z"/><path transform="scale(2 2)" d="M293.294 341.269L197.279 341.28C173.863 341.277 172.265 337.699 172.302 314.727L172.278 218.484C172.264 199.63 183.505 200.166 198.741 200.166L219.377 200.177L314.75 200.166C336.856 200.172 339.994 203.047 339.999 225.333L340.105 325.135C340.249 341.85 328.162 341.3 315.351 341.291L293.294 341.269ZM188.077 210.415C184.125 211.013 182.772 212.895 182.76 216.828L182.775 315.41C182.773 320.708 180.618 330.616 187.115 330.695C192.434 330.76 197.759 330.734 203.08 330.731L324.603 330.726C329.657 330.764 329.756 328.864 329.778 324.149L329.774 228.652C329.774 223.128 332.058 210.951 325.095 210.582C319.865 210.305 314.504 210.4 309.22 210.401L188.077 210.415Z"/><path transform="scale(2 2)" d="M299.213 318.768L209.641 318.776C190.501 318.792 194.476 317.551 194.511 299.007L194.516 242.469C194.512 220.762 191.747 222.533 213.575 222.619L300.186 222.608C305.876 222.607 317.311 220.419 317.435 227.96C317.529 233.658 317.489 239.355 317.49 245.052L317.49 301.306C317.498 320.702 319.297 318.881 299.213 318.768ZM276.841 232.985L204.821 232.985L204.821 308.242L235.375 308.242L279.139 308.242L279.121 292.252C279.096 279.325 278.874 279.602 292.238 279.655L307.237 279.688L307.237 232.985C297.47 232.744 286.72 232.988 276.841 232.985ZM293.294 290.072L289.504 290.072L289.504 308.242L304.258 308.242L307.237 308.242L307.237 290.072L293.294 290.072Z"/><path transform="scale(2 2)" d="M227.017 256.714C227.384 251.52 225.558 247.458 231.055 244.769C239.044 244.275 237.929 251.106 237.792 256.714C240.841 256.651 243.622 256.59 246.672 256.714C249.605 258.621 251.635 262.749 248.874 265.722C246.653 268.114 240.908 267.34 237.792 267.277C237.689 271.925 239.153 276.031 234.287 278.555C226.283 280.285 226.959 272.535 227.017 267.277C210.911 267.467 210.183 256.5 227.017 256.714Z"/><path transform="scale(2 2)" d="M258.379 392.617C248.279 393.85 239.084 386.683 237.813 376.587C236.542 366.492 243.673 357.269 253.764 355.96C263.909 354.643 273.193 361.822 274.471 371.972C275.749 382.122 268.534 391.379 258.379 392.617ZM254.317 366.297C249.844 367.299 247.023 371.729 248.009 376.206C248.995 380.683 253.415 383.519 257.895 382.55C262.399 381.576 265.253 377.128 264.262 372.628C263.272 368.128 258.813 365.29 254.317 366.297Z"/><path transform="scale(2 2)" d="M313.368 393.606C303.071 395.048 293.569 387.827 292.201 377.519C290.833 367.212 298.122 357.762 308.439 356.468C318.652 355.187 327.986 362.386 329.34 372.59C330.695 382.794 323.562 392.179 313.368 393.606ZM309.352 366.527C304.68 367.221 301.429 371.536 302.052 376.219C302.674 380.901 306.94 384.217 311.631 383.665C314.73 383.3 317.391 381.295 318.596 378.417C319.801 375.539 319.361 372.236 317.446 369.773C315.532 367.31 312.438 366.07 309.352 366.527Z"/><path transform="scale(2 2)" d="M203.867 393.695C193.638 395.216 184.108 388.168 182.565 377.942C181.022 367.716 188.048 358.171 198.271 356.606C208.525 355.036 218.106 362.089 219.654 372.346C221.202 382.604 214.128 392.17 203.867 393.695ZM198.933 366.929C194.416 368.151 191.713 372.768 192.859 377.304C194.004 381.841 198.575 384.621 203.13 383.552C206.146 382.844 208.546 380.565 209.407 377.59C210.269 374.615 209.459 371.406 207.288 369.196C205.117 366.987 201.923 366.12 198.933 366.929Z"/></svg>