<?xml version="1.0" encoding="utf-8" ?><svg xmlns="http://www.w3.org/2000/svg" xmlns:xlink="http://www.w3.org/1999/xlink" width="1024" height="1024" viewBox="0 0 1024 1024"><path transform="scale(2 2)" d="M341.289 95.0412C292.824 106.01 287.61 40.5835 329.292 36.8478C348.284 34.8728 363.076 52.9463 360.71 71.6368C372.968 72.7043 387.35 90.2339 380.21 102.06C392.648 111.055 392.699 126.562 385.161 138.522C393.347 149.171 387.248 167.944 374.421 173.66C375.973 187.319 366.794 199.628 353.274 202.115C349.375 217.591 337.434 221.868 323.779 222.444C318.4 232.729 305.802 235.943 295.095 233.797C294.61 235.885 294.26 237.031 293.53 239.054C316.846 248.291 340.983 275.673 352.107 297.2C377.893 347.1 376.979 409.186 330.863 447.109C282.143 487.173 208.064 482.069 167.326 433.069C129.934 388.092 138.347 321.938 171.976 277.45C175.789 272.405 181.152 265.6 185.99 261.61C193.268 253.305 207.599 243.851 217.618 239.054C217.164 237.389 216.878 236.187 216.567 234.492C205.888 235.304 193.936 233.2 188.821 222.444L188.603 222.493C175.573 225.343 161.481 214.767 158.731 202.115C144.691 199.811 137.205 187.814 136.929 174.442C124.187 168.571 119.242 150.938 126.878 138.522C116.888 127.965 120.39 110.412 131.989 102.06C126.241 89.6267 138.018 73.1234 151.075 71.6368C148.913 51.4315 164.981 33.839 185.757 37.3445C222.202 43.4938 220.079 103.994 171.021 95.0412C168.569 101.121 164.498 108.054 158.731 111.498C160.121 122.382 159.644 126.356 155.255 136.636C160.831 144.549 163.027 151.459 161.961 160.963C171.526 163.964 177.311 172.651 179.159 182.191C187.333 182.802 196.83 189.676 199.794 197.367C208.963 194.84 218.268 196.898 225.122 203.47L225.463 203.146C241.73 187.755 271.216 186.733 286.822 203.47C294.338 196.726 302.434 195.517 312.077 197.367C315.79 190.277 325.738 182.832 333.835 182.191C335.336 172.478 342.006 164.385 351.212 160.963C349.355 152.192 352.319 143.248 358.169 136.636C352.786 129.311 351.684 119.955 354.871 111.498C347.364 108.971 343.5 102.24 341.289 95.0412ZM328.955 46.9763C318.112 48.1307 310.258 57.8561 311.413 68.6985C312.567 79.5409 322.293 87.3945 333.135 86.24C343.978 85.0855 351.831 75.3602 350.677 64.5179C349.522 53.6756 339.797 45.822 328.955 46.9763ZM178.807 47.2838C168.058 48.4145 160.259 58.0434 161.385 68.7935C162.512 79.5436 172.138 87.3463 182.889 86.2237C193.645 85.1005 201.453 75.4682 200.325 64.7124C199.198 53.9565 189.563 46.1524 178.807 47.2838ZM357.415 80.6109C355.151 85.3998 348.835 88.8406 350.742 93.2267C353.381 99.2959 357.189 103.421 364.182 102.06C380.183 96.5149 367.509 82.6993 357.415 80.6109ZM151.075 82.0699C141.957 84.8262 134.128 101.217 151.075 103.113C156.977 101.696 160.255 95.282 161.961 89.891C158.366 86.6118 155.763 81.7683 151.075 82.0699ZM370.425 110.272C360.266 113.43 361.508 128.172 367.444 131.3C368.547 131.881 372.2 132.132 373.545 132.201C385.444 130.506 381.177 109.833 370.425 110.272ZM139.825 111.498C129.5 111.87 127.295 133.893 140.993 132.241L141.308 132.201C143.484 131.843 144.125 131.699 146.167 131.053C150.506 123.387 151.117 109.648 139.825 111.498ZM369.299 142.553C360.617 142.515 355.099 163.438 370.425 164.445C380.256 160.323 382.702 140.099 369.299 142.553ZM139.825 142.553C128.536 146.672 133.462 167.101 146.167 164.445C159.23 155.663 149.17 141.569 139.825 142.553ZM354.871 170.773C349.228 172.262 343.911 178.022 343.892 184.025C345.882 188.091 349.259 192.038 354.016 191.67C360.265 188.522 366.306 181.958 364.182 174.442C361.526 171.854 358.714 169.962 354.871 170.773ZM155.255 170.773C138.972 175.226 152.823 192.579 160.644 190.989C173.907 186.794 166.985 170.262 155.255 170.773ZM177.5 192.527C164.693 194.448 168.224 210.127 183.063 212.552C188.721 212.041 188.557 207.642 190.985 203.47C190.276 197.943 183.107 191.928 177.5 192.527ZM333.189 192.527C317.079 197.199 319.518 212.365 331.042 212.552C348.103 206.432 343.008 192.149 333.189 192.527ZM254.131 202.115C235.691 202.696 223.573 215.298 227.443 234.492C239.82 232.242 244.899 230.102 258.681 230.252C269.288 230.971 273.668 231.897 283.81 234.492C289.793 213.068 273.791 201.181 254.131 202.115ZM305.157 207.075C299.42 207.028 296.356 208.504 292.371 212.552C294.474 216.605 294.596 217.853 295.095 222.444C298.087 224.065 299.321 224.618 302.75 224.518C323.893 220.575 311.896 204.769 305.157 207.075ZM204.609 207.075C192.651 210.625 196.057 224.387 211.908 224.518C213.907 224.265 214.649 224.143 216.567 223.319C217.176 218.846 217.961 216.769 219.426 212.552C214.767 207.783 211.32 206.279 204.609 207.075ZM259.758 241.073C259.751 244.121 259.635 247.945 259.758 250.929C273.473 252.846 282.498 266.476 280.444 280.182C276.975 303.336 247.433 311.021 233.68 291.78C222.606 276.286 230.662 255.567 249.428 250.929L249.428 241.073C231.298 242.36 216.693 249.598 202.627 260.711C153.321 299.661 132.245 384.038 180.357 432.014C227.446 478.832 306.357 473.289 343.646 416.842C383.299 356.819 340.147 257.886 270.87 242.143C267.514 241.38 263.193 240.805 259.758 241.073ZM259.758 261.61C259.662 266.99 260.102 273.181 259.514 278.415C258.999 282.992 250.005 283.728 249.562 277.254C249.204 272.02 249.425 266.852 249.428 261.61C241.739 265.511 236.794 272.753 239.914 281.562C249.173 303.375 277.441 288.373 268.77 269.247C267.193 265.77 263.992 263.055 260.355 261.809L259.758 261.61Z"/><path transform="scale(2 2)" d="M233.555 364.252C240.374 361.846 246.83 355.446 254.131 354.313C263.135 353.838 269.974 360.866 277.831 364.252C283.886 362.213 290.118 355.916 296.796 355.645C302.384 355.418 310.656 359.544 312.453 365.169C314.69 372.168 321.328 397.705 321.407 404.318C321.783 435.837 280.764 440.802 257.715 441.24C228.918 441.618 180.907 434.395 191.883 395.089C195.339 382.713 194.444 364.104 205.959 358.069C219.14 351.184 224.138 361.279 233.555 364.252ZM254.95 364.252C248.82 368.115 237.996 376.398 230.871 374.807C224.996 373.495 220.338 368.261 214.792 365.776C210.963 366.736 208.238 367.559 207.477 371.915C205.619 382.545 203.08 393.223 200.884 403.745C196.198 426.199 242.389 431.527 256.125 430.787C275.593 431.296 317.938 426.399 309.878 397.576C307.09 387.607 306.89 367.933 297.334 365.776C295.568 366.293 292.563 368.085 291.013 369.121C271.899 381.899 268.673 366.661 254.95 364.252Z"/></svg>