<?xml version="1.0" encoding="utf-8" ?><svg xmlns="http://www.w3.org/2000/svg" xmlns:xlink="http://www.w3.org/1999/xlink" width="1024" height="1024" viewBox="0 0 1024 1024"><path transform="scale(2 2)" d="M238.579 119.144C235.178 115.777 231.94 112.916 230.025 108.443C221.924 89.5216 235.306 70.9446 254.875 69.3504C279.448 67.2643 296.26 99.6652 273.258 119.144C274.394 121.557 275.534 123.911 276.719 126.301C296.951 129.601 319.266 143.057 334.003 157.005C369.679 190.861 386.295 237.146 388.663 285.367C392.451 362.53 341.668 439.472 259.312 442.24C222.9 442.725 192.761 429.793 166.897 404.519C87.4479 326.882 122.526 153.033 234.233 126.301C235.649 123.655 236.763 121.546 238.579 119.144ZM255.556 79.349C240.259 80.5786 231.594 97.6242 243.129 109.33C247.635 113.903 255.71 112.708 247.32 123.696C250.335 123.645 253.354 123.678 256.37 123.696L264.009 123.696C261.429 118.722 258.946 114.145 265.954 111.213C281.248 104.813 274.566 79.7112 255.556 79.349ZM250.49 133.763C161.849 145.437 121.671 245.175 136.786 325.25C148.218 385.809 198.017 435.568 261.975 432.232C298.373 427.862 325.137 415.542 348.542 385.404C400.293 318.768 383.269 208.227 318.122 156.503C300.634 142.619 273.084 131.78 250.49 133.763Z"/><path transform="scale(2 2)" d="M224.041 183.779C210.88 184.384 221.816 169.996 228.924 167.277C239.303 167.168 232.581 180.526 224.041 183.779Z"/><path transform="scale(2 2)" d="M205.18 202.641C194.884 203.517 198.927 192.377 207.352 187.776C217.89 186.913 213.062 198.234 205.18 202.641Z"/><path transform="scale(2 2)" d="M259.312 328.576L232.913 328.592C215.571 328.596 215.269 330.323 203 317.966L182.3 296.973C180.295 294.937 177.011 291.882 175.514 289.53C167.95 277.643 176.06 268.703 183.78 260.998L195.941 248.87C199.996 244.822 204.023 240.523 208.134 236.56C210.185 234.583 214.375 234.179 216.562 231.988L238.081 210.217C243.124 205.147 247.489 199.425 254.875 198.32C267.307 196.987 288.126 223.38 297.004 232.475C298.978 234.497 302.136 235.11 304.131 237.176L326.798 260.297C340.56 273.968 347.389 280.901 330.103 297.904C322.164 305.713 314.373 314.136 306.692 321.865C297.95 330.661 289.539 328.606 278.343 328.594L259.312 328.576ZM255.556 208.555C252.979 209.138 232.349 229.105 228.924 234.141C238.421 234.25 248.044 234.135 257.559 234.141L284.403 234.141C277.776 226.456 267.656 216.102 259.973 209.332C258.835 208.33 256.984 208.469 255.556 208.555ZM221.72 244.096C219.69 244.16 217.146 243.975 215.371 244.096L215.359 289.777C215.358 293.398 214.784 315.502 216.383 317.318C219.589 318.926 225.69 318.528 229.32 318.528L291.29 318.521C300.559 318.255 297.028 303.256 297.03 294.725L297.023 261.165C297.02 255.753 296.818 249.387 297.023 244.096L221.72 244.096ZM205.18 253.981C198.981 259.389 193.372 265.742 187.476 271.487C176.665 282.019 186.023 286.523 194.203 294.907C197.315 298.115 202.625 303.242 205.18 306.493C205.172 289.347 205.51 271.009 205.18 253.981ZM306.794 254.902C306.797 271.984 306.995 289.442 306.794 306.493C311.461 302.835 314.55 298.876 318.842 294.907C322.445 290.95 333.549 282.682 328.535 277.001C324.886 272.867 310.552 257.294 306.794 254.902Z"/><path transform="scale(2 2)" d="M183.726 223.731C171.907 222.838 182.891 208.729 189.106 206.771C200.612 208.995 189.524 221.04 183.726 223.731Z"/><path transform="scale(2 2)" d="M204.106 384.084C193.791 385.36 184.4 378.017 183.151 367.699C181.902 357.38 189.269 348.009 199.59 346.786C209.874 345.568 219.204 352.902 220.449 363.183C221.694 373.464 214.383 382.813 204.106 384.084ZM201.328 356.643C196.454 356.898 192.721 361.073 193.011 365.945C193.301 370.817 197.503 374.52 202.373 374.195C207.193 373.873 210.851 369.722 210.563 364.9C210.276 360.078 206.152 356.39 201.328 356.643Z"/><path transform="scale(2 2)" d="M312.614 384.098C302.318 385.231 293.047 377.819 291.886 367.527C290.725 357.235 298.112 347.944 308.401 346.755C318.729 345.562 328.063 352.983 329.229 363.314C330.394 373.646 322.948 382.96 312.614 384.098ZM309.812 356.595C304.986 357.062 301.465 361.372 301.969 366.194C302.474 371.016 306.81 374.504 311.628 373.963C316.395 373.428 319.837 369.149 319.338 364.378C318.84 359.607 314.586 356.132 309.812 356.595Z"/><path transform="scale(2 2)" d="M257.615 395.273C247.357 396.119 238.356 388.486 237.514 378.228C236.673 367.969 244.31 358.972 254.569 358.135C264.821 357.299 273.811 364.93 274.652 375.182C275.493 385.433 267.866 394.427 257.615 395.273ZM254.462 368.16C249.731 368.973 246.552 373.464 247.36 378.196C248.167 382.927 252.655 386.111 257.387 385.309C262.127 384.505 265.317 380.009 264.508 375.27C263.7 370.531 259.2 367.347 254.462 368.16Z"/></svg>