<?xml version="1.0" encoding="utf-8" ?><svg xmlns="http://www.w3.org/2000/svg" xmlns:xlink="http://www.w3.org/1999/xlink" width="1024" height="1024" viewBox="0 0 1024 1024"><path transform="scale(2 2)" d="M232.717 150.003C222.997 121.458 230.662 74.5608 266.48 71.6032C286.797 70.0116 297.252 91.5713 298.057 108.858C298.82 125.234 296.659 138.343 290.745 153.558C321.829 165.328 344.09 186.073 355.655 217.447C357.572 222.648 359.017 228.599 361.296 233.575C364.362 239.517 368.281 244.654 371.518 250.569C414.667 329.412 360.608 429.365 272.271 440.079C264.589 441.011 257.331 440.992 249.562 440.985C154.023 436.596 94.6834 330.32 142.663 246.841C149.556 235.917 151.602 232.489 155.762 219.911C167.85 183.356 195.665 159.134 232.717 150.003ZM266.48 81.5895C237.94 85.0729 233.508 126.716 242.697 148.589C251.033 147.665 255.844 148.208 263.812 147.996C270.102 149.005 274.932 149.713 281.251 150.983C288.991 133.133 294.702 100.264 278.455 85.2776C275.571 82.6172 270.42 80.9657 266.48 81.5895ZM253.275 157.405C250.98 157.461 248.715 157.353 246.512 157.405C250.468 165.3 260.527 175.803 269.895 169.433C273.315 166.652 275.435 164.123 277.456 160.146C269.677 158.771 261.196 157.071 253.275 157.405ZM235.63 160.146C205.36 162.663 175.619 193.136 165.823 220.501C163.744 226.31 161.709 232.24 159.242 237.897C156.288 244.764 151.859 249.605 148.667 256.06C133.046 287.649 130.658 315.338 141.866 348.182C163.599 358.635 163.349 331.076 171.856 334.988C180.867 338.968 167.18 360.896 146.383 359.741C168.379 414.254 233.425 442.926 289.468 426.505C320.824 417.531 353.87 390.753 365.867 359.741C357.754 359.845 350.992 357.68 344.867 351.731C330.394 337.675 342.151 325.779 348.804 341.245C353.089 348.37 362.002 352.099 369.907 349.476C383.998 321.124 375.732 275.84 359.995 249.937C357.605 246.002 354.68 242.151 352.591 238.036C349.755 231.429 348.227 224.778 345.407 217.898C335.092 192.722 313.788 170.804 287.257 163.024C262.742 206.352 238.848 160.988 235.845 160.04L235.63 160.146Z"/><path transform="scale(2 2)" d="M287.257 363.667C276.038 374.23 266.001 381.35 249.859 378.684C231.217 375.604 231.481 357.02 214.249 358.859C194.826 360.317 178.789 344.47 176.942 325.66C176.444 320.516 176.668 314.94 176.669 309.744L176.665 262.259C176.564 239.141 182.547 220.375 209.973 217.538C213.569 217.287 220.025 217.533 223.853 217.538L284.541 217.533C321.558 217.518 335.423 222.949 335.403 262.65L335.407 310.703C335.421 331.326 333.34 353.933 307.438 358.43C297.216 360.205 295.917 356.136 287.257 363.667ZM241.059 226.961L223.011 226.947C211.329 226.949 202.827 226.185 193.703 235.147C183.524 245.142 186.239 259.872 186.237 273.134L186.254 319.477C186.398 336.391 196.262 350.532 214.371 349.529C224.442 348.971 227.115 349.721 234.552 356.653C246.497 367.788 251.133 373.696 268.121 366.703C276.078 362.138 280.227 355.648 287.753 351.146C296.305 346.031 318.92 355.481 324.763 330.711C326.312 324.143 325.773 315.955 325.775 309.089L325.771 260.638C325.767 252.834 326.57 246.235 322.451 239.201C313.646 224.163 295.851 226.944 281.024 226.953L241.059 226.961Z"/><path transform="scale(2 2)" d="M244.388 274.764C240.764 263.164 242.113 252.311 255.407 249.804C269.832 248.275 271.887 264.579 268.121 275.494C269.965 276.185 271.257 276.827 273.029 277.712C283.461 254.387 307.661 270.601 299.569 286.133C297.197 290.688 293.842 294.775 288.736 296.676C292.213 305.624 292.009 314.709 285.001 321.765C277.7 329.116 268.536 327.61 259.062 327.579C251.253 327.599 238.336 328.755 231.655 324.916C222.251 319.514 218.953 306.946 224.507 297.453C194.642 284.557 224.631 246.871 239.574 277.712C241.145 276.697 242.784 275.731 244.388 274.764ZM255.407 259.532C249.269 262.134 250.932 272.495 256.945 272.521C262.842 269.743 262.294 258.924 255.407 259.532ZM224.507 275.494C216.921 279.422 224.5 288.44 228.675 288.605C230.018 285.968 230.334 285.712 232.717 283.927C229.819 280.149 229.769 275.402 224.507 275.494ZM285.97 275.494C282.554 276.984 281.631 280.503 281.251 283.927C282.37 286.029 283.189 288.506 285.97 287.642C291.729 284.278 294.821 274.733 285.97 275.494ZM254.338 282.838C244.546 283.981 239.906 287.166 235.836 296.197C231.764 303.393 226.558 315.512 239.928 317.803C246 318.843 252.837 318.107 259.062 318.097C284.151 318.232 286.545 311.898 274.453 292.07C270.62 285.785 261.204 282.355 254.338 282.838Z"/><path transform="scale(2 2)" d="M205.385 404.422C195.431 405.179 186.76 397.694 186.057 387.736C185.354 377.778 192.886 369.148 202.848 368.499C212.733 367.856 221.282 375.318 221.98 385.199C222.678 395.08 215.263 403.67 205.385 404.422ZM202.769 377.961C198.12 378.618 194.886 382.923 195.549 387.571C196.213 392.219 200.523 395.446 205.17 394.776C209.807 394.106 213.026 389.808 212.364 385.17C211.701 380.532 207.408 377.306 202.769 377.961Z"/><path transform="scale(2 2)" d="M308.887 407.915C298.846 409.014 289.806 401.791 288.661 391.756C287.515 381.721 294.696 372.647 304.726 371.455C314.822 370.255 323.969 377.494 325.121 387.595C326.274 397.697 318.993 406.81 308.887 407.915ZM305.735 380.954C301.046 381.576 297.738 385.865 298.327 390.558C298.917 395.251 303.182 398.589 307.879 398.034C312.623 397.473 316.003 393.155 315.408 388.414C314.813 383.673 310.471 380.325 305.735 380.954Z"/><path transform="scale(2 2)" d="M259.606 422.322C249.718 424.139 240.226 417.606 238.392 407.721C236.559 397.836 243.076 388.334 252.959 386.484C262.863 384.631 272.392 391.166 274.23 401.074C276.067 410.981 269.516 420.5 259.606 422.322ZM254.284 396.107C249.692 397.109 246.778 401.638 247.769 406.232C248.761 410.826 253.284 413.751 257.88 412.77C262.49 411.786 265.426 407.245 264.432 402.637C263.437 398.028 258.891 395.102 254.284 396.107Z"/></svg>