<?xml version="1.0" encoding="utf-8" ?><svg xmlns="http://www.w3.org/2000/svg" xmlns:xlink="http://www.w3.org/1999/xlink" width="1024" height="1024" viewBox="0 0 1024 1024"><path transform="scale(2 2)" d="M258.885 134.858C244.722 136.478 231.907 126.36 230.198 112.207C228.489 98.0535 238.527 85.1755 252.669 83.3776C266.937 81.5637 279.955 91.7106 281.68 105.99C283.404 120.269 273.175 133.223 258.885 134.858ZM254.502 93.9349C246.054 94.7354 239.878 102.268 240.749 110.709C241.62 119.151 249.205 125.264 257.638 124.322C265.973 123.391 271.998 115.915 271.137 107.574C270.276 99.2316 262.851 93.1438 254.502 93.9349Z"/><path transform="scale(2 2)" d="M387.662 136.476C385.004 124.15 381.42 111.878 378.491 99.5921C376.382 93.0523 396.067 84.5898 400.431 83.3272C408.374 82.815 424.181 109.635 412.709 119.855C409.144 122.5 403.898 118.443 404.995 114.565C407.594 105.372 404.747 102.781 400.431 95.6419C397.322 96.7926 392.858 99.2184 389.573 100.716C392.612 113.644 396.869 126.835 400.224 139.716C402.842 149.763 406.724 153.067 403.03 164.009C398.688 170.497 394.236 174.63 386.009 174.673C360.236 174.805 359.576 135.884 387.662 136.476ZM384.226 147.41C379.63 148.126 376.491 152.441 377.224 157.034C377.958 161.628 382.285 164.751 386.875 164C391.441 163.253 394.544 158.954 393.814 154.385C393.085 149.816 388.798 146.698 384.226 147.41Z"/><path transform="scale(2 2)" d="M116.872 154.514L113.511 134.126C110.953 119.335 108.279 118.18 124.308 111.895C128.023 110.438 130.933 108.783 135.043 107.785C145.468 108.035 152.88 132.31 147.15 142.849C143.178 150.155 132.018 144.564 138.674 136.476C139.427 130.753 137.997 123.531 133.827 119.318C130.301 120.667 125.949 122.726 122.425 124.275C124.494 136.272 126.615 148.34 128.601 160.357C129.967 168.617 134.414 168.483 131.361 179.693C124.176 197.815 99.3276 195.384 94.9913 177.038C91.7039 163.129 103.77 154.173 116.872 154.514ZM111.54 165.382C107.098 166.521 104.413 171.037 105.533 175.484C106.653 179.932 111.157 182.637 115.609 181.536C120.089 180.429 122.815 175.89 121.688 171.415C120.561 166.94 116.01 164.235 111.54 165.382Z"/><path transform="scale(2 2)" d="M131.361 280.733C121.851 218.72 165.824 160.24 225.505 145.811C233.123 143.969 240.395 143.109 248.16 142.218C254.453 142.154 260.471 142.138 266.732 142.617C336.917 147.987 387.924 209.844 381.671 279.416C385.736 282.39 389.938 285.386 393.246 289.245C408.532 307.076 409.282 332.716 391.207 348.873C383.36 355.888 381.435 346.524 381.551 339.822C381.682 332.242 378.557 327.972 374.076 322.231C371.506 336.389 369.497 352.857 365.748 366.665C356.742 399.837 326.963 424.252 293.08 428.282C283.749 429.392 273.408 428.968 263.964 428.954L239.001 428.963C231.534 428.964 223.854 429.181 216.44 428.055C183.46 423.184 151.106 396.627 145.494 362.828C143.334 349.814 139.692 335.266 138.674 322.231C127.236 332.658 133.137 337.95 131.43 347.932C131.126 350.328 127.062 352.09 125.078 351.004C97.7917 336.07 102.407 293.71 131.361 280.733ZM251.143 152.75C216.278 156.003 188.231 167.67 165.245 195.834C140.245 226.466 137.802 257.713 144.059 294.322L153.835 348.609C155.528 357.902 156.175 365.625 160.12 374.404C175.427 408.463 206.341 418.289 240.331 418.279L261.875 418.272C270.365 418.281 280.102 418.676 288.447 418.003C316.764 415.72 343.194 397.124 353.336 370.336C355.909 363.62 356.479 358.278 357.822 351.377L368.059 296.603C369.903 286.407 372.016 276.529 372.007 266.244C371.944 200.667 315.503 151.306 251.143 152.75ZM379.816 292.025C378.264 298.328 377.667 304.837 376.092 310.903C383.643 316.975 389.053 322.321 391.112 332.031C391.585 331.786 391.371 331.995 391.544 331.544C396.267 319.292 392.732 297.136 379.816 292.025ZM132.658 292.025C118.878 299.673 113.422 318.032 121.015 331.887L121.327 332.031C122.636 323.512 128.68 315.841 136.399 312.134C135.849 309.379 133.48 292.922 132.658 292.025Z"/><path transform="scale(2 2)" d="M306.811 332.79C283.434 333.086 259.372 332.78 235.939 332.781L215.441 332.798C199.098 332.811 181.63 329.527 181.248 308.364C181.137 302.228 181.184 296.133 181.181 290.015L181.186 235.672C181.197 218.645 183.823 201.638 205.912 200.669C209.063 200.377 217.583 200.672 221.228 200.676L289.743 200.665C295.95 200.661 303.17 200.369 309.254 200.971C332.343 203.256 331.02 225.924 331.023 242.372L331.036 297.236C331.105 315.409 328 329.969 306.811 332.79ZM207.197 211.151C192.314 211.739 191.636 222.749 191.643 234.432L191.677 306.713C191.677 322.183 205.24 322.242 215.935 322.243L304.312 322.231C321.099 320.602 320.501 309.278 320.51 296.51L320.513 242.233C320.51 231.814 322.927 213.168 308.037 211.439C303.687 210.934 298.376 211.138 293.928 211.138L227.897 211.143C221.461 211.141 213.496 210.914 207.197 211.151Z"/><path transform="scale(2 2)" d="M226.288 273.178C225.201 271.485 217.137 281.243 214.006 282.738C206.782 286.188 202.944 276.717 210.361 272.072C214.573 269.434 220.052 262.407 224.779 260.29C231.029 259.964 244.897 273.853 245.784 276.659C247 280.504 242.745 284.987 238.883 283.16C234.62 281.144 230.613 276.019 226.288 273.178Z"/><path transform="scale(2 2)" d="M286.724 273.178C284.523 270.782 277.333 284.384 270.934 283.327C266.666 282.622 265.297 276.301 268.882 273.6C273.279 270.287 279.99 262.672 284.554 260.29C287.026 260.068 287.993 260.024 289.904 261.716C293.11 264.556 313.247 279.912 301.509 283.571C296.572 285.11 290.096 276.513 286.724 273.178Z"/><path transform="scale(2 2)" d="M232.951 310.903C223.836 311.171 224.037 296.095 230.281 293.279C239.419 292.579 239.456 307.482 232.951 310.903Z"/><path transform="scale(2 2)" d="M281.605 310.903C272.172 312.259 272.708 295.452 278.835 293.279C288.693 292.699 287.833 307.915 281.605 310.903Z"/><path transform="scale(2 2)" d="M218.626 396.741C206.808 398.199 196.048 389.795 194.6 377.975C193.153 366.156 201.568 355.403 213.389 353.967C225.194 352.533 235.929 360.933 237.374 372.737C238.82 384.541 230.429 395.284 218.626 396.741ZM214.009 364.811C208.167 365.882 204.297 371.484 205.363 377.327C206.428 383.17 212.026 387.046 217.87 385.986C223.722 384.924 227.604 379.317 226.537 373.466C225.47 367.615 219.859 363.739 214.009 364.811Z"/><path transform="scale(2 2)" d="M299.12 395.947C287.653 397.293 277.271 389.075 275.948 377.605C274.625 366.135 282.863 355.769 294.336 354.469C305.776 353.172 316.107 361.383 317.426 372.821C318.745 384.259 310.555 394.605 299.12 395.947ZM295.269 364.955C289.598 365.712 285.6 370.903 286.317 376.58C287.035 382.256 292.198 386.29 297.879 385.613C303.617 384.929 307.701 379.703 306.976 373.97C306.252 368.237 300.997 364.19 295.269 364.955Z"/></svg>