<?xml version="1.0" encoding="utf-8" ?><svg xmlns="http://www.w3.org/2000/svg" xmlns:xlink="http://www.w3.org/1999/xlink" width="1024" height="1024" viewBox="0 0 1024 1024"><path transform="scale(2 2)" d="M250.777 136.431C246.596 134.777 244.272 131.857 247.347 127.146C249.466 123.9 255.151 126.881 258.551 126.243C280.033 122.214 274.791 92.6963 253.893 94.3217C233.861 95.9594 244.318 120.049 234.687 118.794C223.125 117.355 229.623 84.9507 254.953 84.2623C282.602 80.0955 296.317 129.82 260.769 136.431L260.769 142.428L287.592 142.415C312.778 142.41 318.285 140.709 331.81 162.338L341.432 177.962C350.136 192.208 357.148 202.312 342.025 217.478C384.828 268.571 382.086 351.98 341.91 403.887C326.521 423.77 320.537 426.771 296.823 426.757L205.598 426.749C187.579 425.983 179.668 416.651 169.657 403.453C130.275 351.532 125.821 267.291 170.49 217.478C153.603 200.873 163.367 189.227 172.798 174.051C189.532 147.124 187.195 142.395 222.184 142.41L250.777 142.428L250.777 136.431ZM216.059 152.517C194.769 152.567 195.183 157.54 185.086 173.679C177.821 185.291 163.952 199.362 178.824 210.838C193.509 222.17 218.015 214.091 220.002 194.778C220.528 189.572 224.031 184.047 228.407 189.357C230.588 192.002 229.728 195.795 230.799 198.916C238.207 221.421 272.972 222.103 280.605 200.063C281.787 196.265 283.758 180.061 291.45 190.664C292.484 192.693 291.943 196.223 292.429 198.22C297.477 218.931 330.146 222.631 339.573 203.517C342.64 197.298 337.956 191.848 334.75 186.741L327.31 174.844C315.584 155.891 317.616 152.485 292.708 152.504L216.059 152.517ZM225.083 210.854C213.436 224.587 196.835 231.327 179.317 223.187C163.086 239.186 153.249 267.373 150.145 289.662C144.272 331.827 157.097 376.153 186.326 407.453C192.031 413.563 198.84 416.24 207.119 416.307L302.404 416.306C319.457 415.996 323.964 409.812 333.78 397.228C369.285 351.715 372.429 284.236 342.12 235.273C339.374 230.845 336.699 226.986 333.059 223.187C315.889 229.809 298.568 225.995 286.907 210.854C279.423 219.841 272 225.197 259.922 226.384C243.091 228.037 235.325 222.039 225.083 210.854Z"/><path transform="scale(2 2)" d="M311.466 354.763L210.499 354.772C180.519 354.787 184.329 347.038 184.32 322.538L184.323 272.389C184.327 258.993 184.592 251.517 201.069 250.816L301.961 250.803C323.131 250.792 328.278 251.187 328.257 273.607L328.235 340.634C328.207 352.164 321.672 354.976 311.466 354.763ZM198.926 261.319C191.54 261.85 194.421 270.286 194.423 277.603L194.446 324.995C194.408 344.669 190.726 344.528 209.723 344.537L313.758 344.534C317.26 344.332 317.711 344.279 317.76 340.435C317.828 335.103 317.787 329.767 317.785 324.434L317.798 275.423C317.864 257.856 318.078 261.312 299.445 261.307L198.926 261.319Z"/><path transform="scale(2 2)" d="M234.817 326.107C232.538 325.721 227.978 322.606 228.382 319.836C228.42 319.58 263.309 282.961 268.93 280.228C271.931 280.89 274.21 283.922 275.527 286.54C274.277 288.691 269.642 292.993 267.663 294.967L250.718 311.616C247.463 314.782 238.5 324.807 234.817 326.107Z"/><path transform="scale(2 2)" d="M211.125 402.269C201.639 403.105 193.263 396.112 192.393 386.629C191.523 377.146 198.485 368.745 207.965 367.841C217.494 366.931 225.947 373.938 226.822 383.469C227.697 393.001 220.659 401.429 211.125 402.269ZM208.346 378.369C204.669 378.989 202.165 382.439 202.715 386.127C203.264 389.816 206.665 392.385 210.363 391.907C212.82 391.589 214.913 389.969 215.836 387.671C216.759 385.373 216.369 382.755 214.816 380.826C213.263 378.897 210.789 377.957 208.346 378.369Z"/><path transform="scale(2 2)" d="M304.643 402.206C295.204 403.161 286.774 396.293 285.803 386.855C284.831 377.418 291.686 368.977 301.121 367.989C310.58 367 319.046 373.874 320.02 383.334C320.993 392.794 314.104 401.249 304.643 402.206ZM301.702 378.583C298.098 379.226 295.71 382.684 296.385 386.282C297.061 389.88 300.541 392.237 304.133 391.529C307.678 390.83 309.998 387.404 309.331 383.852C308.665 380.3 305.26 377.949 301.702 378.583Z"/><path transform="scale(2 2)" d="M257.873 402.093C248.616 402.972 240.395 396.189 239.499 386.933C238.603 377.677 245.371 369.444 254.625 368.531C263.903 367.616 272.162 374.405 273.061 383.685C273.959 392.965 267.155 401.212 257.873 402.093ZM254.059 379.316C251.902 380.063 250.314 381.915 249.906 384.162C249.498 386.408 250.334 388.7 252.091 390.158C253.849 391.616 256.256 392.013 258.388 391.197C261.613 389.963 263.251 386.37 262.069 383.126C260.887 379.882 257.322 378.186 254.059 379.316Z"/></svg>