<svg width="200" height="200" viewBox="0 0 200 200" fill="none" xmlns="http://www.w3.org/2000/svg">
  <!-- Cat face -->
  <circle cx="100" cy="100" r="80" fill="#FF9966"/>

  <!-- Ears -->
  <path d="M50 50 L30 20 L70 40 Z" fill="#FF9966"/>
  <path d="M150 50 L170 20 L130 40 Z" fill="#FF9966"/>

  <!-- Eyes -->
  <circle cx="75" cy="90" r="12" fill="#000"/>
  <circle cx="125" cy="90" r="12" fill="#000"/>
  <circle cx="78" cy="87" r="5" fill="#FFF"/>
  <circle cx="128" cy="87" r="5" fill="#FFF"/>

  <!-- Nose -->
  <path d="M100 105 L95 115 L105 115 Z" fill="#FF6B9D"/>

  <!-- Mouth -->
  <path d="M100 115 Q90 125 85 120" stroke="#000" stroke-width="2" fill="none"/>
  <path d="M100 115 Q110 125 115 120" stroke="#000" stroke-width="2" fill="none"/>

  <!-- Whiskers -->
  <line x1="40" y1="95" x2="70" y2="95" stroke="#000" stroke-width="2"/>
  <line x1="40" y1="105" x2="70" y2="100" stroke="#000" stroke-width="2"/>
  <line x1="130" y1="95" x2="160" y2="95" stroke="#000" stroke-width="2"/>
  <line x1="130" y1="100" x2="160" y2="105" stroke="#000" stroke-width="2"/>
</svg>
